<svg width="59" height="24" viewBox="0 0 59 24" fill="none" xmlns="http://www.w3.org/2000/svg">
<path d="M3.882 3H4.132V3.68H3.792C3.552 3.68 3.33533 3.74333 3.142 3.87C3.082 3.91 2.952 4 2.752 4.14V8.72H2.042V3.03H2.722V3.46C2.742 3.44667 2.792 3.41 2.872 3.35C2.95867 3.29 3.00867 3.25667 3.022 3.25C3.042 3.23667 3.08533 3.21 3.152 3.17C3.22533 3.13 3.27867 3.10667 3.312 3.1C3.352 3.08667 3.40533 3.07 3.472 3.05C3.572 3.01667 3.70867 3 3.882 3Z" fill="#83A5FF"/>
<path d="M4.47403 7.27V4.49C4.47403 4.01667 4.60736 3.64 4.87403 3.36C5.14736 3.07333 5.55736 2.93 6.10403 2.93C6.6507 2.93 7.05403 3.07333 7.31403 3.36C7.5807 3.64 7.71403 4.01667 7.71403 4.49V6.23H5.17403V7.24C5.17403 7.54 5.26736 7.76333 5.45403 7.91C5.6407 8.05667 5.9307 8.13 6.32403 8.13C6.71736 8.13 7.12403 8.07 7.54403 7.95V8.61C7.2107 8.71667 6.81403 8.77 6.35403 8.77C5.1007 8.77 4.47403 8.27 4.47403 7.27ZM5.17403 5.64H7.03403V4.49C7.03403 3.86333 6.72403 3.55 6.10403 3.55C5.48403 3.55 5.17403 3.86333 5.17403 4.49V5.64Z" fill="#83A5FF"/>
<path d="M8.9495 7.1V7.4C8.9495 7.66667 9.01283 7.86333 9.1395 7.99C9.26617 8.11667 9.50617 8.18 9.8595 8.18C10.2128 8.18 10.5462 8.05 10.8595 7.79V5.92L9.7195 6.24C9.4195 6.32667 9.21617 6.43333 9.1095 6.56C9.00283 6.68667 8.9495 6.86667 8.9495 7.1ZM9.8495 2.98C10.9828 2.98 11.5495 3.46333 11.5495 4.43V8.72H10.8695V8.31C10.5295 8.61 10.1228 8.76 9.6495 8.76C8.72283 8.76 8.2595 8.30333 8.2595 7.39V7.07C8.2595 6.37667 8.66283 5.91667 9.4695 5.69L10.8695 5.3V4.43C10.8628 4.15667 10.7862 3.95667 10.6395 3.83C10.4928 3.70333 10.1962 3.64 9.7495 3.64C9.3095 3.64 8.90283 3.70667 8.5295 3.84V3.17C8.9095 3.04333 9.3495 2.98 9.8495 2.98Z" fill="#83A5FF"/>
<path d="M12.4775 4.42C12.4775 3.46 13.0375 2.98 14.1575 2.98C14.5709 2.98 14.9242 3.02667 15.2175 3.12V3.77C14.8975 3.68333 14.5509 3.64 14.1775 3.64C13.8042 3.64 13.5442 3.70667 13.3975 3.84C13.2575 3.96667 13.1875 4.16667 13.1875 4.44V7.32C13.1875 7.6 13.2575 7.80333 13.3975 7.93C13.5442 8.05667 13.8109 8.12 14.1975 8.12C14.5842 8.12 14.9309 8.06667 15.2375 7.96V8.63C14.8775 8.72333 14.5175 8.77 14.1575 8.77C13.0375 8.77 12.4775 8.29667 12.4775 7.35V4.42Z" fill="#83A5FF"/>
<path d="M16.6787 2V3.03H17.9487V3.66H16.6787V7.46C16.6787 7.69333 16.7354 7.86333 16.8487 7.97C16.9621 8.07 17.1354 8.12 17.3687 8.12C17.6021 8.12 17.8287 8.08333 18.0487 8.01V8.66C17.7821 8.72667 17.5321 8.76 17.2987 8.76C16.4054 8.76 15.9587 8.33667 15.9587 7.49V3.66H15.3387V3.03H15.9887L16.1887 2H16.6787Z" fill="#83A5FF"/>
<path d="M18.7289 7.87C18.9622 7.87 19.0789 7.98 19.0789 8.2C19.0789 8.49333 18.8455 9.08667 18.3789 9.98H17.9589L18.3789 7.87H18.7289Z" fill="#83A5FF"/>
<path d="M3.32 11.56C3.32 12 3.1 12.22 2.66 12.22C2.22 12.22 2 12 2 11.56C2 11.112 2.22 10.888 2.66 10.888C3.1 10.888 3.32 11.112 3.32 11.56ZM2.096 12.904H3.224V19.72H2.096V12.904Z" fill="#83A5FF"/>
<path d="M8.80128 13.264H8.39328C8.20928 13.264 8.05328 13.3 7.92528 13.372C8.14928 13.652 8.26128 14.024 8.26128 14.488V15.472C8.26128 16.032 8.08928 16.468 7.74528 16.78C7.40928 17.092 6.89728 17.252 6.20928 17.26C5.83328 17.26 5.64528 17.436 5.64528 17.788C5.64528 17.956 5.69328 18.076 5.78928 18.148C5.89328 18.22 6.07328 18.256 6.32928 18.256H7.02528C8.16128 18.256 8.72928 18.732 8.72928 19.684V19.888C8.72928 20.968 7.96528 21.508 6.43728 21.508H5.96928C5.09728 21.508 4.43728 21.368 3.98928 21.088V20.032C4.51728 20.376 5.16928 20.548 5.94528 20.548H6.32928C6.80928 20.548 7.14928 20.492 7.34928 20.38C7.54928 20.268 7.64928 20.1 7.64928 19.876V19.768C7.64928 19.576 7.59728 19.436 7.49328 19.348C7.39728 19.252 7.20528 19.204 6.91728 19.204H6.18528C5.15328 19.204 4.63728 18.856 4.63728 18.16V17.968C4.63728 17.52 4.84928 17.248 5.27328 17.152C4.46528 16.92 4.06128 16.36 4.06128 15.472V14.488C4.06128 13.92 4.23328 13.48 4.57728 13.168C4.92928 12.856 5.41728 12.7 6.04128 12.7C6.66528 12.7 7.14528 12.796 7.48128 12.988C7.64928 12.476 8.02928 12.22 8.62128 12.22H8.80128V13.264ZM7.13328 15.46V14.5C7.13328 14.204 7.05728 13.988 6.90528 13.852C6.75328 13.708 6.50528 13.636 6.16128 13.636C5.81728 13.636 5.56928 13.708 5.41728 13.852C5.26528 13.988 5.18928 14.204 5.18928 14.5V15.46C5.18928 15.756 5.26528 15.976 5.41728 16.12C5.56928 16.256 5.81728 16.324 6.16128 16.324C6.50528 16.324 6.75328 16.256 6.90528 16.12C7.05728 15.976 7.13328 15.756 7.13328 15.46Z" fill="#83A5FF"/>
<path d="M10.4599 13.132C10.9719 12.908 11.4479 12.796 11.8879 12.796C12.3359 12.796 12.6999 12.932 12.9799 13.204C13.2679 13.468 13.4119 13.852 13.4119 14.356V19.72H12.2599V14.548C12.2599 14.076 12.0239 13.84 11.5519 13.84C11.2079 13.84 10.8599 13.928 10.5079 14.104V19.72H9.37991V12.82H10.4599V13.132Z" fill="#83A5FF"/>
<path d="M17.3248 14.608C17.3248 13.992 17.0168 13.684 16.4008 13.684C15.7848 13.684 15.4768 13.992 15.4768 14.608V17.932C15.4768 18.548 15.7848 18.856 16.4008 18.856C17.0168 18.856 17.3248 18.548 17.3248 17.932V14.608ZM14.3608 14.584C14.3608 14.008 14.5288 13.552 14.8648 13.216C15.2008 12.872 15.7128 12.7 16.4008 12.7C17.0888 12.7 17.6008 12.872 17.9368 13.216C18.2808 13.552 18.4528 14.008 18.4528 14.584V17.956C18.4528 18.532 18.2808 18.992 17.9368 19.336C17.6008 19.672 17.0888 19.84 16.4008 19.84C15.7128 19.84 15.2008 19.672 14.8648 19.336C14.5288 18.992 14.3608 18.532 14.3608 17.956V14.584Z" fill="#83A5FF"/>
<path d="M21.9009 12.784H22.1769V13.852H21.8169C21.4409 13.852 21.0289 14.004 20.5809 14.308V19.72H19.4529V12.82H20.5329V13.324C20.5569 13.308 20.6009 13.276 20.6649 13.228C20.7369 13.18 20.7809 13.152 20.7969 13.144C20.8209 13.128 20.8609 13.1 20.9169 13.06C20.9809 13.02 21.0249 12.996 21.0489 12.988C21.0729 12.98 21.1089 12.964 21.1569 12.94C21.2129 12.908 21.2569 12.888 21.2889 12.88C21.3209 12.872 21.3609 12.86 21.4089 12.844C21.4649 12.82 21.5169 12.808 21.5649 12.808C21.7089 12.792 21.8209 12.784 21.9009 12.784Z" fill="#83A5FF"/>
<path d="M22.5002 17.896V14.584C22.5002 14.008 22.6682 13.552 23.0042 13.216C23.3402 12.872 23.8522 12.7 24.5402 12.7C25.2282 12.7 25.7362 12.872 26.0642 13.216C26.3922 13.552 26.5562 14.008 26.5562 14.584V16.78H23.6042V17.836C23.6042 18.156 23.7002 18.392 23.8922 18.544C24.0922 18.696 24.4362 18.772 24.9242 18.772C25.4202 18.772 25.9002 18.7 26.3642 18.556V19.588C25.8842 19.716 25.3722 19.78 24.8282 19.78C23.2762 19.78 22.5002 19.152 22.5002 17.896ZM23.6042 15.868H25.4882V14.596C25.4882 13.972 25.1722 13.66 24.5402 13.66C23.9162 13.66 23.6042 13.972 23.6042 14.596V15.868Z" fill="#83A5FF"/>
<path d="M31.8248 12.784H32.1008V13.852H31.7408C31.3648 13.852 30.9528 14.004 30.5048 14.308V19.72H29.3768V12.82H30.4568V13.324C30.4808 13.308 30.5248 13.276 30.5888 13.228C30.6608 13.18 30.7048 13.152 30.7208 13.144C30.7448 13.128 30.7848 13.1 30.8408 13.06C30.9048 13.02 30.9488 12.996 30.9728 12.988C30.9968 12.98 31.0328 12.964 31.0808 12.94C31.1368 12.908 31.1808 12.888 31.2128 12.88C31.2448 12.872 31.2848 12.86 31.3328 12.844C31.3888 12.82 31.4408 12.808 31.4888 12.808C31.6328 12.792 31.7448 12.784 31.8248 12.784Z" fill="#83A5FF"/>
<path d="M32.4241 17.896V14.584C32.4241 14.008 32.5921 13.552 32.9281 13.216C33.2641 12.872 33.7761 12.7 34.4641 12.7C35.1521 12.7 35.6601 12.872 35.9881 13.216C36.3161 13.552 36.4801 14.008 36.4801 14.584V16.78H33.5281V17.836C33.5281 18.156 33.6241 18.392 33.8161 18.544C34.0161 18.696 34.3601 18.772 34.8481 18.772C35.3441 18.772 35.8241 18.7 36.2881 18.556V19.588C35.8081 19.716 35.2961 19.78 34.7521 19.78C33.2001 19.78 32.4241 19.152 32.4241 17.896ZM33.5281 15.868H35.4121V14.596C35.4121 13.972 35.0961 13.66 34.4641 13.66C33.8401 13.66 33.5281 13.972 33.5281 14.596V15.868Z" fill="#83A5FF"/>
<path d="M38.479 13.132C38.991 12.908 39.467 12.796 39.907 12.796C40.355 12.796 40.719 12.932 40.999 13.204C41.287 13.468 41.431 13.852 41.431 14.356V19.72H40.279V14.548C40.279 14.076 40.043 13.84 39.571 13.84C39.227 13.84 38.879 13.928 38.527 14.104V19.72H37.399V12.82H38.479V13.132Z" fill="#83A5FF"/>
<path d="M45.2959 13.84H44.4799C43.8319 13.84 43.5079 14.144 43.5079 14.752V17.932C43.5079 18.468 43.7719 18.736 44.2999 18.736C44.7239 18.736 45.0559 18.624 45.2959 18.4V13.84ZM45.2959 10.984H46.4359V19.72H45.3199V19.288C44.9919 19.6 44.5599 19.756 44.0239 19.756C43.4879 19.756 43.0799 19.612 42.7999 19.324C42.5199 19.028 42.3799 18.608 42.3799 18.064V14.716C42.3799 14.124 42.5519 13.66 42.8959 13.324C43.2399 12.988 43.7199 12.82 44.3359 12.82H45.2959V10.984Z" fill="#83A5FF"/>
<path d="M47.434 17.896V14.584C47.434 14.008 47.602 13.552 47.938 13.216C48.274 12.872 48.786 12.7 49.474 12.7C50.162 12.7 50.67 12.872 50.998 13.216C51.326 13.552 51.49 14.008 51.49 14.584V16.78H48.538V17.836C48.538 18.156 48.634 18.392 48.826 18.544C49.026 18.696 49.37 18.772 49.858 18.772C50.354 18.772 50.834 18.7 51.298 18.556V19.588C50.818 19.716 50.306 19.78 49.762 19.78C48.21 19.78 47.434 19.152 47.434 17.896ZM48.538 15.868H50.422V14.596C50.422 13.972 50.106 13.66 49.474 13.66C48.85 13.66 48.538 13.972 48.538 14.596V15.868Z" fill="#83A5FF"/>
<path d="M54.8568 12.784H55.1328V13.852H54.7728C54.3968 13.852 53.9848 14.004 53.5368 14.308V19.72H52.4088V12.82H53.4888V13.324C53.5128 13.308 53.5568 13.276 53.6208 13.228C53.6928 13.18 53.7368 13.152 53.7528 13.144C53.7768 13.128 53.8168 13.1 53.8728 13.06C53.9368 13.02 53.9808 12.996 54.0048 12.988C54.0288 12.98 54.0648 12.964 54.1128 12.94C54.1688 12.908 54.2128 12.888 54.2448 12.88C54.2768 12.872 54.3168 12.86 54.3648 12.844C54.4208 12.82 54.4728 12.808 54.5208 12.808C54.6648 12.792 54.7768 12.784 54.8568 12.784Z" fill="#83A5FF"/>
<path d="M55.9002 19.804C55.4602 19.804 55.2402 19.584 55.2402 19.144C55.2402 18.704 55.4602 18.484 55.9002 18.484C56.3402 18.484 56.5602 18.704 56.5602 19.144C56.5602 19.584 56.3402 19.804 55.9002 19.804Z" fill="#83A5FF"/>
</svg>
